Coordinates
version=1
nRows=19
nColumns=24
inDegrees=yes

Units are S.I. units (second, meters, Newtons, ...)
Angles are in degrees.

endheader
time	pelvis_tilt	pelvis_list	pelvis_rotation	pelvis_tx	pelvis_ty	pelvis_tz	hip_flexion_r	hip_adduction_r	hip_rotation_r	knee_angle_r	ankle_angle_r	subtalar_angle_r	mtp_angle_r	hip_flexion_l	hip_adduction_l	hip_rotation_l	knee_angle_l	ankle_angle_l	subtalar_angle_l	mtp_angle_l	lumbar_extension	lumbar_bending	lumbar_rotation
      0.58300000	     -1.96964813	      2.36910607	      6.55874718	     -0.91877578	      1.00583229	      0.31161737	     25.11038290	     -2.72002819	     -9.46968069	      3.51013870	      2.63042618	     -0.10392248	      5.44956176	    -12.23076509	      6.43188589	     11.80297772	     -8.74487343	     15.96209784	     -5.14164070	     -3.65542901	     -3.47765370	     -5.65328438	     -5.13600160
      0.58716667	     -1.91652467	      2.22976308	      6.58692882	     -0.91321176	      1.00518712	      0.31174010	     25.19537814	     -2.51258212	     -9.35840974	      2.78803815	      2.67487816	     -0.30832849	      5.46009101	    -12.40159292	      6.26811509	     11.81647440	     -9.18369615	     16.09712869	     -5.16838704	     -3.65758408	     -3.51095888	     -5.47889016	     -5.13070631
      0.59133333	     -1.85077270	      2.09483273	      6.59279691	     -0.90758631	      1.00455358	      0.31191711	     25.23950605	     -2.29192513	     -9.06167665	      2.09002481	      2.58154363	     -0.83182206	      5.52601020	    -12.55088449	      6.10161490	     11.62663682	     -9.70039468	     16.37956010	     -4.81798140	     -3.67805143	     -3.51656859	     -5.29508665	     -5.09540359
      0.59550000	     -1.79136029	      1.94219944	      6.60775279	     -0.90193806	      1.00397313	      0.31204971	     25.32152860	     -2.06817381	     -8.93186710	      1.29215929	      2.55086933	     -1.07048233	      5.54209085	    -12.71345404	      5.93180404	     11.63792125	    -10.17433685	     16.46460866	     -4.88713432	     -3.67961525	     -3.54464639	     -5.09603365	     -5.09580927
      0.59966667	     -1.72244729	      1.80023707	      6.59697351	     -0.89622903	      1.00340331	      0.31226019	     25.34403642	     -1.82682139	     -8.52461172	      0.58417731	      2.28970380	     -1.80591215	      5.63902231	    -12.86455011	      5.76822075	     11.50103568	    -10.69568904	     16.63173110	     -4.70073963	     -3.68401149	     -3.53941017	     -4.90138586	     -5.06102213
      0.60383333	     -1.65257974	      1.64081560	      6.58786034	     -0.89044876	      1.00287918	      0.31246516	     25.37324759	     -1.57111964	     -8.20555131	     -0.16064879	      2.03632792	     -2.39958674	      5.75571194	    -13.01773592	      5.58934940	     11.40004758	    -11.21608491	     16.73703657	     -4.60640113	     -3.67783988	     -3.54217739	     -4.68989098	     -5.03395934
      0.60800000	     -1.58584341	      1.47918202	      6.57030830	     -0.88463647	      1.00237738	      0.31270025	     25.40041605	     -1.30588429	     -7.85054658	     -0.90120370	      1.71335354	     -3.05477363	      5.88017104	    -13.16262505	      5.41139645	     11.30160209	    -11.75301853	     16.80341583	     -4.54193713	     -3.65880106	     -3.54217937	     -4.47992775	     -5.00499172
      0.61216667	     -1.52821925	      1.30581440	      6.53748665	     -0.87874939	      1.00189697	      0.31296116	     25.42895474	     -1.02048518	     -7.46643099	     -1.63152774	      1.35268865	     -3.72373752	      5.98900626	    -13.29325043	      5.22762198	     11.20268605	    -12.29862665	     16.84149396	     -4.49921994	     -3.63106022	     -3.50439158	     -4.23826623	     -4.97839505
      0.61633333	     -1.44708005	      1.13684825	      6.50992048	     -0.87283923	      1.00148836	      0.31325356	     25.41446569	     -0.73164108	     -7.06365195	     -2.32173821	      0.86411911	     -4.50310272	      6.11547330	    -13.43663348	      5.03925995	     11.06157952	    -12.86782917	     16.84801020	     -4.41583229	     -3.58579270	     -3.50933602	     -4.02389637	     -4.93881525
      0.62050000	     -1.38119555	      0.97958110	      6.48683438	     -0.86690767	      1.00109980	      0.31355589	     25.41159430	     -0.45525592	     -6.65057416	     -3.00385230	      0.31777018	     -5.32767557	      6.27947680	    -13.54084001	      4.86596632	     10.91856394	    -13.48567282	     16.83209268	     -4.31920014	     -3.51008034	     -3.49592694	     -3.84059686	     -4.89065809
      0.62466667	     -1.32467481	      0.80067338	      6.45240633	     -0.86091477	      1.00073622	      0.31389488	     25.41161586	     -0.15071161	     -6.23978510	     -3.66740514	     -0.26728743	     -6.12456206	      6.44630506	    -13.63493902	      4.67081396	     10.76650411	    -14.09758499	     16.77971874	     -4.22463637	     -3.41514371	     -3.46222096	     -3.61767829	     -4.85331798
      0.62883333	     -1.26751729	      0.62049650	      6.41629023	     -0.85487452	      1.00040652	      0.31425673	     25.39784240	      0.15971446	     -5.81763296	     -4.30150269	     -0.91205608	     -6.95811132	      6.63374637	    -13.71543410	      4.47185408	     10.57789158	    -14.74528761	     16.70560672	     -4.11598478	     -3.28915687	     -3.40784209	     -3.39539081	     -4.80753550
      0.63300000	     -1.20628512	      0.43401722	      6.37778220	     -0.84879076	      1.00012916	      0.31463729	     25.37385626	      0.47843981	     -5.41256512	     -4.92295634	     -1.58807639	     -7.76439277	      6.82535851	    -13.79288263	      4.26649012	     10.40003333	    -15.40081996	     16.57958079	     -4.01692842	     -3.13764677	     -3.36008407	     -3.16954845	     -4.76110817
      0.63716667	     -1.14386293	      0.24543404	      6.33747082	     -0.84267582	      0.99989738	      0.31503939	     25.34139762	      0.79990621	     -5.02355582	     -5.53005531	     -2.28281358	     -8.55184837	      7.03236612	    -13.85474891	      4.05384865	     10.17954437	    -16.08156929	     16.41875160	     -3.89107450	     -2.94617790	     -3.31396575	     -2.93635160	     -4.71164788
      0.64133333	     -1.10966697	      0.04873743	      6.30441488	     -0.83652067	      0.99967173	      0.31545219	     25.33447717	      1.12291108	     -4.66827972	     -6.12792382	     -2.98312303	     -9.29625312	      7.23148952	    -13.87509641	      3.83321367	      9.96612556	    -16.79015459	     16.22240107	     -3.75741584	     -2.73130522	     -3.21899258	     -2.70331297	     -4.67434961
      0.64550000	     -1.06671799	     -0.15287270	      6.27534426	     -0.83032977	      0.99950479	      0.31587456	     25.31205840	      1.44816702	     -4.33692029	     -6.71918345	     -3.67152160	    -10.00340950	      7.43045563	    -13.88348081	      3.60079732	      9.72364198	    -17.52958021	     15.98947795	     -3.60517020	     -2.47966825	     -3.13135053	     -2.46638543	     -4.63344760
      0.64966667	     -1.01407739	     -0.36017277	      6.24006017	     -0.82411622	      0.99939162	      0.31631601	     25.27723518	      1.78004226	     -4.02955010	     -7.30903640	     -4.33705332	    -10.66478362	      7.63259243	    -13.89344517	      3.35845880	      9.45685514	    -18.27835453	     15.71210012	     -3.43949626	     -2.18183030	     -3.05594532	     -2.21884424	     -4.58577213
      0.65383333	     -0.96632908	     -0.57163142	      6.21457272	     -0.81787741	      0.99932586	      0.31675644	     25.24367001	      2.10771687	     -3.76345075	     -7.89949656	     -4.96157936	    -11.26955013	      7.84146086	    -13.87084571	      3.10609624	      9.16806138	    -19.06936267	     15.38701830	     -3.25278385	     -1.81733773	     -2.96943837	     -1.97167365	     -4.55077971
      0.65800000	     -0.91681267	     -0.79006019	      6.19550052	     -0.81160657	      0.99930989	      0.31718886	     25.21812091	      2.42624103	     -3.61024185	     -8.51918249	     -5.51803356	    -11.67411440	      9.79469911	    -13.83928943	      2.83412006	      8.84417646	    -19.86114301	     14.92030351	     -3.05372664	      2.15304464	     -2.88411617	     -1.71797509	     -4.52108215
